<svg xmlns="http://www.w3.org/2000/svg" xmlns:xlink="http://www.w3.org/1999/xlink" viewBox="0 0 358.73 365.65"><defs><style>.cls-1{fill:url(#linear-gradient);}.cls-2{fill:url(#linear-gradient-2);}.cls-3{fill:url(#linear-gradient-3);}.cls-4{fill:url(#linear-gradient-4);}.cls-5{fill:url(#linear-gradient-5);}.cls-6{fill:url(#linear-gradient-6);}</style><linearGradient id="linear-gradient" x1="148.94" y1="399.92" x2="53.5" y2="158.98" gradientUnits="userSpaceOnUse"><stop offset="0.04" stop-color="#edb5c6"/><stop offset="0.16" stop-color="#eec1cf"/><stop offset="0.37" stop-color="#f0e2e7"/><stop offset="0.46" stop-color="#f1f2f2"/><stop offset="0.54" stop-color="#eceff0"/><stop offset="0.64" stop-color="#dce5ec"/><stop offset="0.75" stop-color="#c3d4e4"/><stop offset="0.86" stop-color="#a0bdda"/><stop offset="0.99" stop-color="#73a0cd"/><stop offset="1" stop-color="#6d9ccb"/></linearGradient><linearGradient id="linear-gradient-2" x1="69.6" y1="354.1" x2="69.6" y2="47.86" gradientUnits="userSpaceOnUse"><stop offset="0" stop-color="#fec6c6"/><stop offset="0.46" stop-color="#f1f2f2"/><stop offset="0.51" stop-color="#e5eaef"/><stop offset="0.6" stop-color="#c6d3e7"/><stop offset="0.73" stop-color="#94afda"/><stop offset="0.87" stop-color="#4f7ec9"/><stop offset="0.97" stop-color="#1c5abc"/></linearGradient><linearGradient id="linear-gradient-3" x1="245.16" y1="-7.24" x2="267.1" y2="235.6" gradientUnits="userSpaceOnUse"><stop offset="0.06" stop-color="#6d9ccb"/><stop offset="0.1" stop-color="#7ea7d0"/><stop offset="0.26" stop-color="#bccfe2"/><stop offset="0.37" stop-color="#e2e8ee"/><stop offset="0.43" stop-color="#f1f2f2"/><stop offset="0.63" stop-color="#f4e7e7"/><stop offset="0.98" stop-color="#fdc8c8"/><stop offset="1" stop-color="#fec6c6"/></linearGradient><linearGradient id="linear-gradient-4" x1="293.71" y1="15.29" x2="279.49" y2="341.85" gradientUnits="userSpaceOnUse"><stop offset="0" stop-color="#6d9ccb"/><stop offset="0.2" stop-color="#a6c1dc"/><stop offset="0.41" stop-color="#dce4ec"/><stop offset="0.51" stop-color="#f1f2f2"/><stop offset="0.6" stop-color="#e6d5e1"/><stop offset="0.69" stop-color="#debed3"/><stop offset="0.74" stop-color="#dbb6ce"/></linearGradient><linearGradient id="linear-gradient-5" x1="176" y1="-6.89" x2="176" y2="422.67" gradientUnits="userSpaceOnUse"><stop offset="0" stop-color="#f1f2f2"/><stop offset="0.01" stop-color="#dce4ec"/><stop offset="0.02" stop-color="#b4cae0"/><stop offset="0.04" stop-color="#95b6d7"/><stop offset="0.05" stop-color="#7fa8d0"/><stop offset="0.07" stop-color="#729fcc"/><stop offset="0.08" stop-color="#6d9ccb"/><stop offset="0.26" stop-color="#cad8e6"/><stop offset="0.35" stop-color="#f1f2f2"/><stop offset="0.45" stop-color="#e5d8e5"/><stop offset="0.66" stop-color="#c594c4"/><stop offset="0.97" stop-color="#932a90"/><stop offset="0.97" stop-color="#92278f"/></linearGradient><linearGradient id="linear-gradient-6" x1="182.91" y1="449.95" x2="182.91" y2="-11.51" gradientUnits="userSpaceOnUse"><stop offset="0.18" stop-color="#f1f2f2"/><stop offset="0.25" stop-color="#fecbc6"/><stop offset="0.33" stop-color="#fbd5d1"/><stop offset="0.46" stop-color="#f2f0ef"/><stop offset="0.47" stop-color="#f1f2f2"/><stop offset="0.52" stop-color="#e5eaef"/><stop offset="0.6" stop-color="#c6d3e7"/><stop offset="0.7" stop-color="#94afda"/><stop offset="0.82" stop-color="#4f7ec9"/><stop offset="0.91" stop-color="#1c5abc"/></linearGradient></defs><g id="Layer_2" data-name="Layer 2"><g id="OPSCI"><path class="cls-1" d="M0,182.82A178.49,178.49,0,0,1,38.61,71.64a2.28,2.28,0,0,0,0,.58A160.77,160.77,0,0,0,9.48,164.84C9.48,247.14,59,292,129.71,329.2c1,.54,2,1.08,3,1.56,4.69,2.59,9.53,5,14.37,7.24a.94.94,0,0,0,.34.19,307.49,307.49,0,0,0,62.12,21.41c-3.62.63-7.33,1.12-11.05,1.51a174.41,174.41,0,0,1-19.1,1C80.3,362.14,0,281.84,0,182.82Z"/><path class="cls-2" d="M9.48,164.84A160.77,160.77,0,0,1,38.66,72.22a167.55,167.55,0,0,0,10,51.52,143.85,143.85,0,0,0-3.37,110.11c6.4,17.79,25.21,51.36,45.74,68.86a239.74,239.74,0,0,0,38.66,26.49C59,292,9.48,247.14,9.48,164.84Z"/><path class="cls-3" d="M358.73,182.78A178.49,178.49,0,0,1,320.12,294a2.28,2.28,0,0,0-.05-.58,160.77,160.77,0,0,0,29.18-92.62c0-82.3-49.51-127.12-120.23-164.36-1-.54-2-1.08-3-1.56-4.69-2.6-9.53-5-14.37-7.24a.75.75,0,0,0-.34-.19A306.87,306.87,0,0,0,149.21,6c3.62-.64,7.33-1.12,11-1.52a177,177,0,0,1,19.11-1C278.43,3.46,358.73,83.76,358.73,182.78Z"/><path class="cls-4" d="M349.25,200.76a160.77,160.77,0,0,1-29.18,92.62,167.26,167.26,0,0,0-10-51.52,143.92,143.92,0,0,0,3.38-110.11C307,114,288.21,80.39,267.68,62.89A239.74,239.74,0,0,0,229,36.4C299.74,73.64,349.25,118.46,349.25,200.76Z"/><path class="cls-5" d="M313.43,131.75c-1.18-3.13-2.5-6.16-3.91-9.19a141.74,141.74,0,0,0-27.76-40.07c-1.52-1.62-3.08-3.13-4.65-4.6a44.93,44.93,0,0,0-4-3.52c-1.32-1.22-2.64-2.34-4-3.37-2.69-2.2-5.48-4.3-8.31-6.21-1.62-1.12-3.23-2.19-4.89-3.22-3-1.91-6.11-3.67-9.19-5.33-1.56-.78-3.13-1.61-4.69-2.34-48.73-23.41-105.81-16.43-137.63,9A39.2,39.2,0,0,0,94.13,75.4c-10.46,19.4-7.62,49.9,14.56,86.07,1,1.61,2,3.22,3.08,4.74,45.46,67,146.92,72.28,135.29,33.28,1,1.51,2.05,3.08,3,4.69,22.18,36.22,25.07,66.81,14.51,86.17-.78-14.67-16.47-30.7-65.78-41.94C121.11,230.72,76.05,185,54.45,137.86c-2.16-4.69-4.06-9.43-5.77-14.12a166.77,166.77,0,0,1-10.07-52A118.25,118.25,0,0,1,42,39.23c2.84-10.65,7.23-19.5,13-25.66C69.74-2.06,107.23-3.63,149.21,6a306.87,306.87,0,0,1,62.12,21.41.75.75,0,0,1,.34.19c4.89,2.35,9.68,4.79,14.37,7.24,1,.48,2,1,3,1.56a239.74,239.74,0,0,1,38.66,26.49C288.21,80.39,307,114,313.43,131.75Z"/><path class="cls-6" d="M320.12,294c.64,25.17-5.47,46.38-16.42,58.06-14.37,15.35-50.63,17.21-91.59,8.21H212a25,25,0,0,1-2.64-.58,308.44,308.44,0,0,1-76.19-28.59A239.27,239.27,0,0,1,91.1,302.71c-20.23-17.2-38.81-50-45.45-68,.88,2.3,1.86,4.54,2.83,6.79a3.41,3.41,0,0,0,.34.69,139.87,139.87,0,0,0,21.61,33.77c1.22,1.42,2.44,2.78,3.66,4.1a124.51,124.51,0,0,0,9.29,9.24c1.56,1.47,3.17,2.83,4.79,4.15q2.64,2.28,5.42,4.26c1.42,1.12,2.89,2.15,4.35,3.12,1.66,1.18,3.33,2.3,5,3.33,1.17.73,2.34,1.46,3.52,2.15,2.93,1.71,5.86,3.32,8.84,4.79,1.47.78,2.93,1.51,4.45,2.15,1.17.54,2.34,1.07,3.57,1.51s2.49,1,3.71,1.47c.88.34,1.76.68,2.59,1s1.66.58,2.45.88,1.66.53,2.44.83c1.42.49,2.83.93,4.3,1.32l.49.14.54.15a.83.83,0,0,0,.34.1,112.72,112.72,0,0,0,15.69,3.61c1.51.25,3,.49,4.54.69s3.08.39,4.64.54,3.13.29,4.7.39,3.17.19,4.79.24,3.17.1,4.79.1a134.87,134.87,0,0,0,15.54-.88c1.61-.15,3.22-.34,4.84-.59,2.2-.34,4.39-.73,6.59-1.12,1.37-.25,2.74-.54,4.06-.83a14.62,14.62,0,0,0,1.91-.44c1.36-.29,2.68-.64,4-1,14.62-4,27.67-10.31,38-18.62a40,40,0,0,0,10.26-12.36c10.56-19.36,7.67-50-14.51-86.17-1-1.61-2-3.18-3-4.69C201.55,132.34,100,127.11,111.77,166.21c-1.07-1.52-2.1-3.13-3.08-4.74C86.51,125.3,83.67,94.8,94.13,75.4,95,90.06,110.8,106,160,117.24c85.43,19.4,131.42,72.72,150.09,124.62a167.26,167.26,0,0,1,10,51.52A2.28,2.28,0,0,1,320.12,294Z"/></g></g></svg>