<svg xmlns="http://www.w3.org/2000/svg" xmlns:xlink="http://www.w3.org/1999/xlink" viewBox="0 0 125 125"><defs><style>.cls-1{fill:url(#linear-gradient);}.cls-2{fill:url(#linear-gradient-2);}.cls-3{fill:url(#linear-gradient-3);}.cls-4{fill:url(#linear-gradient-4);}.cls-5{fill:url(#linear-gradient-5);}.cls-6{fill:url(#linear-gradient-6);}.cls-7{fill:#131951;}</style><linearGradient id="linear-gradient" x1="55.26" y1="97.23" x2="32.54" y2="39.88" gradientUnits="userSpaceOnUse"><stop offset="0.04" stop-color="#edb5c6"/><stop offset="0.16" stop-color="#eec1cf"/><stop offset="0.37" stop-color="#f0e2e7"/><stop offset="0.46" stop-color="#f1f2f2"/><stop offset="0.54" stop-color="#eceff0"/><stop offset="0.64" stop-color="#dce5ec"/><stop offset="0.75" stop-color="#c3d4e4"/><stop offset="0.86" stop-color="#a0bdda"/><stop offset="0.99" stop-color="#73a0cd"/><stop offset="1" stop-color="#6d9ccb"/></linearGradient><linearGradient id="linear-gradient-2" x1="36.38" y1="86.32" x2="36.38" y2="13.42" gradientUnits="userSpaceOnUse"><stop offset="0" stop-color="#fec6c6"/><stop offset="0.46" stop-color="#f1f2f2"/><stop offset="0.51" stop-color="#e5eaef"/><stop offset="0.6" stop-color="#c6d3e7"/><stop offset="0.73" stop-color="#94afda"/><stop offset="0.87" stop-color="#4f7ec9"/><stop offset="0.97" stop-color="#1c5abc"/></linearGradient><linearGradient id="linear-gradient-3" x1="78.19" y1="0.3" x2="83.41" y2="58.11" gradientUnits="userSpaceOnUse"><stop offset="0.06" stop-color="#6d9ccb"/><stop offset="0.1" stop-color="#7ea7d0"/><stop offset="0.26" stop-color="#bccfe2"/><stop offset="0.37" stop-color="#e2e8ee"/><stop offset="0.43" stop-color="#f1f2f2"/><stop offset="0.63" stop-color="#f4e7e7"/><stop offset="0.98" stop-color="#fdc8c8"/><stop offset="1" stop-color="#fec6c6"/></linearGradient><linearGradient id="linear-gradient-4" x1="89.73" y1="5.66" x2="86.35" y2="83.41" gradientUnits="userSpaceOnUse"><stop offset="0" stop-color="#6d9ccb"/><stop offset="0.2" stop-color="#a6c1dc"/><stop offset="0.41" stop-color="#dce4ec"/><stop offset="0.51" stop-color="#f1f2f2"/><stop offset="0.6" stop-color="#e6d5e1"/><stop offset="0.69" stop-color="#debed3"/><stop offset="0.74" stop-color="#dbb6ce"/></linearGradient><linearGradient id="linear-gradient-5" x1="61.71" y1="0.36" x2="61.71" y2="102.66" gradientUnits="userSpaceOnUse"><stop offset="0" stop-color="#f1f2f2"/><stop offset="0.01" stop-color="#dce4ec"/><stop offset="0.02" stop-color="#b4cae0"/><stop offset="0.04" stop-color="#95b6d7"/><stop offset="0.05" stop-color="#7fa8d0"/><stop offset="0.07" stop-color="#729fcc"/><stop offset="0.08" stop-color="#6d9ccb"/><stop offset="0.26" stop-color="#cad8e6"/><stop offset="0.35" stop-color="#f1f2f2"/><stop offset="0.45" stop-color="#e5d8e5"/><stop offset="0.66" stop-color="#c594c4"/><stop offset="0.97" stop-color="#932a90"/><stop offset="0.97" stop-color="#92278f"/></linearGradient><linearGradient id="linear-gradient-6" x1="63.36" y1="109.18" x2="63.36" y2="-0.72" gradientUnits="userSpaceOnUse"><stop offset="0.18" stop-color="#f1f2f2"/><stop offset="0.25" stop-color="#fecbc6"/><stop offset="0.33" stop-color="#fbd5d1"/><stop offset="0.46" stop-color="#f2f0ef"/><stop offset="0.47" stop-color="#f1f2f2"/><stop offset="0.52" stop-color="#e5eaef"/><stop offset="0.6" stop-color="#c6d3e7"/><stop offset="0.7" stop-color="#94afda"/><stop offset="0.82" stop-color="#4f7ec9"/><stop offset="0.91" stop-color="#1c5abc"/></linearGradient></defs><g id="_780X300" data-name="780X300"><path class="cls-1" d="M19.82,45.55A42.47,42.47,0,0,1,29,19.08a.66.66,0,0,0,0,.14,38.24,38.24,0,0,0-6.95,22.05c0,19.59,11.79,30.26,28.62,39.12,1.39.76,2.79,1.47,4.22,2.14a72.83,72.83,0,0,0,14.78,5.1c-.86.15-1.74.27-2.63.36C42.05,90.81,19.65,70.73,19.82,45.55Z"/><path class="cls-2" d="M22.07,41.27a38.24,38.24,0,0,1,7-22.05A39.75,39.75,0,0,0,31.4,31.48a34,34,0,0,0-3,14.07c0,10.32,4.9,20.69,13.11,28.54a57.43,57.43,0,0,0,9.2,6.3C33.86,71.53,22.07,60.86,22.07,41.27Z"/><path class="cls-3" d="M105.21,45.54A42.47,42.47,0,0,1,96,72a.57.57,0,0,0,0-.13A38.33,38.33,0,0,0,103,49.82c0-19.59-11.79-30.26-28.63-39.13C73,9.94,71.54,9.22,70.12,8.55a73.45,73.45,0,0,0-14.78-5.1c.86-.15,1.74-.26,2.63-.36C83,.27,105.37,20.35,105.21,45.54Z"/><path class="cls-4" d="M103,49.82A38.33,38.33,0,0,1,96,71.87,39.6,39.6,0,0,0,93.62,59.6a33.85,33.85,0,0,0,3-14.06c0-10.33-4.9-20.69-13.11-28.54a57.12,57.12,0,0,0-9.21-6.31C91.17,19.56,103,30.23,103,49.82Z"/><path class="cls-5" d="M94.43,33.39A34.4,34.4,0,0,0,80.75,16.68c-11.29-7.4-27.89-6.51-36.07.33-5.78,5-4.82,13.77,1,23.45,9.46,16.24,35.92,19,32.94,9.06.24.36.49.73.72,1.11a33,33,0,0,1,1.74,3.06,33.63,33.63,0,0,1,2.46,6.63,17.62,17.62,0,0,1,.13,8.82,7.63,7.63,0,0,1-.88,2c-.18-3.49-3.92-7.3-15.66-10C48.65,57,37.92,46.07,32.78,34.84c-4-8.48-6.09-22.39.15-29.58,7.65-7.32,30.31-.84,40.69,5.06A55.56,55.56,0,0,1,83.54,17a39.71,39.71,0,0,1,7.9,10A41.38,41.38,0,0,1,94.43,33.39Z"/><path class="cls-6" d="M96,72c.15,6-1.3,11-3.91,13.83-7.87,7.33-30.07.89-40.59-5a57.78,57.78,0,0,1-10-6.75,39.81,39.81,0,0,1-7.76-9.76,42.15,42.15,0,0,1-3.06-6.44c.21.55.44,1.08.68,1.62A34.15,34.15,0,0,0,68.94,79.06c5-1,11.49-3.53,13.86-7.92,2.8-4.54,1.35-13.56-4.17-21.62-10.83-16-35-17.24-32.21-7.93-.25-.36-.5-.74-.73-1.13C42.35,35,40.82,30.11,40.8,26.07A12.66,12.66,0,0,1,42.22,20c.21,3.49,4,7.29,15.68,10C78.23,34.55,89.18,47.25,93.62,59.6A40.1,40.1,0,0,1,96,72Z"/><path class="cls-7" d="M27.8,123A8.24,8.24,0,0,1,22,121a7,7,0,0,1-2.19-5.37v-7.55A7,7,0,0,1,22,102.68a8.24,8.24,0,0,1,5.82-2,8.19,8.19,0,0,1,5.79,2,6.94,6.94,0,0,1,2.2,5.37v7.55a6.94,6.94,0,0,1-2.2,5.37A8.19,8.19,0,0,1,27.8,123Zm0-1.9a6.07,6.07,0,0,0,4.32-1.53,5.26,5.26,0,0,0,1.64-4v-7.4a5.26,5.26,0,0,0-1.64-4.05,6.11,6.11,0,0,0-4.32-1.52,6.14,6.14,0,0,0-4.34,1.52,5.23,5.23,0,0,0-1.65,4.05v7.4a5.23,5.23,0,0,0,1.65,4A6.1,6.1,0,0,0,27.8,121.1Z"/><path class="cls-7" d="M50.79,101a6.55,6.55,0,0,1,4.91,1.89,7.72,7.72,0,0,1,0,10,6.59,6.59,0,0,1-4.91,1.88H45v7.77h-2V101ZM50.65,113a4.72,4.72,0,0,0,3.53-1.37,5.63,5.63,0,0,0,0-7.29,4.75,4.75,0,0,0-3.53-1.36H45v10Z"/><path class="cls-7" d="M69.37,123a12.9,12.9,0,0,1-6.66-1.71v-1.94a12.34,12.34,0,0,0,6.44,1.75A7.28,7.28,0,0,0,73.51,120a3.55,3.55,0,0,0,1.6-3,3.38,3.38,0,0,0-.31-1.5,2.74,2.74,0,0,0-.9-1.1,7,7,0,0,0-1.2-.73,12.9,12.9,0,0,0-1.43-.54l-3.44-1a14.64,14.64,0,0,1-1.51-.52,8.54,8.54,0,0,1-1.38-.74,5.05,5.05,0,0,1-1.19-1,4.76,4.76,0,0,1-.79-1.41,5.26,5.26,0,0,1-.32-1.86,5.17,5.17,0,0,1,2-4.25,8.52,8.52,0,0,1,5.47-1.58,9.91,9.91,0,0,1,5.67,1.48V104a10.29,10.29,0,0,0-5.58-1.48,6.84,6.84,0,0,0-4,1,3.27,3.27,0,0,0-1.47,2.82,3.46,3.46,0,0,0,.29,1.44,2.74,2.74,0,0,0,.86,1,6.16,6.16,0,0,0,1.14.67,10.06,10.06,0,0,0,1.37.5l3.49,1c.58.16,1.09.34,1.54.51a9.68,9.68,0,0,1,1.41.74,5.67,5.67,0,0,1,1.24,1,4.76,4.76,0,0,1,.8,1.45,6,6,0,0,1-1.72,6.48A8.8,8.8,0,0,1,69.37,123Z"/><path class="cls-7" d="M90.79,123a8.54,8.54,0,0,1-5.91-2,6.77,6.77,0,0,1-2.19-5.28V107.9a6.76,6.76,0,0,1,2.19-5.28,8.54,8.54,0,0,1,5.91-2,13.63,13.63,0,0,1,5.32,1.1v1.9a12,12,0,0,0-5-1.1,6.76,6.76,0,0,0-4.66,1.5,5.16,5.16,0,0,0-1.69,4.07v7.4a5.17,5.17,0,0,0,1.69,4.07,6.72,6.72,0,0,0,4.66,1.51,12,12,0,0,0,5-1.1v1.9A13.63,13.63,0,0,1,90.79,123Z"/><path class="cls-7" d="M102.78,122.61V101h2v21.57Z"/></g></svg>