<svg xmlns="http://www.w3.org/2000/svg" xmlns:xlink="http://www.w3.org/1999/xlink" viewBox="0 0 508.02 125.19"><defs><style>.cls-1{fill:url(#linear-gradient);}.cls-2{fill:url(#linear-gradient-2);}.cls-3{fill:url(#linear-gradient-3);}.cls-4{fill:url(#linear-gradient-4);}.cls-5{fill:url(#linear-gradient-5);}.cls-6{fill:url(#linear-gradient-6);}.cls-7{fill:url(#linear-gradient-7);}.cls-8{fill:url(#linear-gradient-8);}.cls-9{fill:url(#linear-gradient-9);}.cls-10{fill:url(#linear-gradient-10);}.cls-11{fill:url(#linear-gradient-11);}.cls-12{fill:url(#linear-gradient-12);}</style><linearGradient id="linear-gradient" x1="64.92" y1="-18.75" x2="465.4" y2="235.07" gradientUnits="userSpaceOnUse"><stop offset="0" stop-color="#fec6c6"/><stop offset="0.16" stop-color="#f8dbdb"/><stop offset="0.35" stop-color="#f3ecec"/><stop offset="0.48" stop-color="#f1f2f2"/><stop offset="1" stop-color="#1c75bc"/></linearGradient><linearGradient id="linear-gradient-2" x1="219.21" y1="32.44" x2="338.25" y2="104.22" xlink:href="#linear-gradient"/><linearGradient id="linear-gradient-3" x1="225.72" y1="21.66" x2="344.75" y2="93.44" xlink:href="#linear-gradient"/><linearGradient id="linear-gradient-4" x1="232.65" y1="10.16" x2="351.68" y2="81.94" xlink:href="#linear-gradient"/><linearGradient id="linear-gradient-5" x1="239.64" y1="-1.43" x2="358.67" y2="70.35" xlink:href="#linear-gradient"/><linearGradient id="linear-gradient-6" x1="243.74" y1="-8.22" x2="362.77" y2="63.55" xlink:href="#linear-gradient"/><linearGradient id="linear-gradient-7" x1="191.83" y1="77.77" x2="178.44" y2="43.98" gradientUnits="userSpaceOnUse"><stop offset="0.04" stop-color="#edb5c6"/><stop offset="0.16" stop-color="#eec1cf"/><stop offset="0.37" stop-color="#f0e2e7"/><stop offset="0.46" stop-color="#f1f2f2"/><stop offset="0.54" stop-color="#eceff0"/><stop offset="0.64" stop-color="#dce5ec"/><stop offset="0.75" stop-color="#c3d4e4"/><stop offset="0.86" stop-color="#a0bdda"/><stop offset="0.99" stop-color="#73a0cd"/><stop offset="1" stop-color="#6d9ccb"/></linearGradient><linearGradient id="linear-gradient-8" x1="180.7" y1="71.34" x2="180.7" y2="28.39" gradientUnits="userSpaceOnUse"><stop offset="0" stop-color="#fec6c6"/><stop offset="0.46" stop-color="#f1f2f2"/><stop offset="0.51" stop-color="#e5eaef"/><stop offset="0.6" stop-color="#c6d3e7"/><stop offset="0.73" stop-color="#94afda"/><stop offset="0.87" stop-color="#4f7ec9"/><stop offset="0.97" stop-color="#1c5abc"/></linearGradient><linearGradient id="linear-gradient-9" x1="205.34" y1="20.66" x2="208.41" y2="54.72" gradientUnits="userSpaceOnUse"><stop offset="0.06" stop-color="#6d9ccb"/><stop offset="0.1" stop-color="#7ea7d0"/><stop offset="0.26" stop-color="#bccfe2"/><stop offset="0.37" stop-color="#e2e8ee"/><stop offset="0.43" stop-color="#f1f2f2"/><stop offset="0.63" stop-color="#f4e7e7"/><stop offset="0.98" stop-color="#fdc8c8"/><stop offset="1" stop-color="#fec6c6"/></linearGradient><linearGradient id="linear-gradient-10" x1="212.14" y1="23.82" x2="210.15" y2="69.63" gradientUnits="userSpaceOnUse"><stop offset="0" stop-color="#6d9ccb"/><stop offset="0.2" stop-color="#a6c1dc"/><stop offset="0.41" stop-color="#dce4ec"/><stop offset="0.51" stop-color="#f1f2f2"/><stop offset="0.6" stop-color="#e6d5e1"/><stop offset="0.69" stop-color="#debed3"/><stop offset="0.74" stop-color="#dbb6ce"/></linearGradient><linearGradient id="linear-gradient-11" x1="195.63" y1="20.69" x2="195.63" y2="80.97" gradientUnits="userSpaceOnUse"><stop offset="0" stop-color="#f1f2f2"/><stop offset="0.01" stop-color="#dce4ec"/><stop offset="0.02" stop-color="#b4cae0"/><stop offset="0.04" stop-color="#95b6d7"/><stop offset="0.05" stop-color="#7fa8d0"/><stop offset="0.07" stop-color="#729fcc"/><stop offset="0.08" stop-color="#6d9ccb"/><stop offset="0.26" stop-color="#cad8e6"/><stop offset="0.35" stop-color="#f1f2f2"/><stop offset="0.45" stop-color="#e5d8e5"/><stop offset="0.66" stop-color="#c594c4"/><stop offset="0.97" stop-color="#932a90"/><stop offset="0.97" stop-color="#92278f"/></linearGradient><linearGradient id="linear-gradient-12" x1="196.6" y1="84.82" x2="196.6" y2="20.06" gradientUnits="userSpaceOnUse"><stop offset="0.18" stop-color="#f1f2f2"/><stop offset="0.25" stop-color="#fecbc6"/><stop offset="0.33" stop-color="#fbd5d1"/><stop offset="0.46" stop-color="#f2f0ef"/><stop offset="0.47" stop-color="#f1f2f2"/><stop offset="0.52" stop-color="#e5eaef"/><stop offset="0.6" stop-color="#c6d3e7"/><stop offset="0.7" stop-color="#94afda"/><stop offset="0.82" stop-color="#4f7ec9"/><stop offset="0.91" stop-color="#1c5abc"/></linearGradient></defs><g id="_508X125" data-name="508X125"><rect width="508.02" height="125.19"/></g><g id="_1440X300" data-name="1440X300"><rect class="cls-1" y="98.65" width="508.02" height="4.88"/><path class="cls-2" d="M243.91,60.84a10,10,0,0,1-7-2.45,8.41,8.41,0,0,1-2.65-6.5V42.76a8.41,8.41,0,0,1,2.65-6.5,11.26,11.26,0,0,1,14,0,8.41,8.41,0,0,1,2.65,6.5v9.13a8.41,8.41,0,0,1-2.65,6.5A9.89,9.89,0,0,1,243.91,60.84Zm0-2.3a7.36,7.36,0,0,0,5.23-1.84,6.4,6.4,0,0,0,2-4.91V42.84a6.36,6.36,0,0,0-2-4.9,8.42,8.42,0,0,0-10.48,0,6.33,6.33,0,0,0-2,4.9v8.95a6.37,6.37,0,0,0,2,4.91A7.39,7.39,0,0,0,243.91,58.54Z"/><path class="cls-3" d="M271.72,34.28a7.94,7.94,0,0,1,5.94,2.28,8.28,8.28,0,0,1,2.24,6,8.32,8.32,0,0,1-2.24,6.08A8,8,0,0,1,271.72,51h-7.05v9.39h-2.46V34.28Zm-.17,14.41A5.72,5.72,0,0,0,275.83,47a6.05,6.05,0,0,0,1.62-4.43,6,6,0,0,0-1.62-4.38,5.72,5.72,0,0,0-4.28-1.65h-6.88V48.69Z"/><path class="cls-4" d="M294.21,60.84a15.64,15.64,0,0,1-8.07-2.07V56.43a15,15,0,0,0,7.8,2.11,8.94,8.94,0,0,0,5.28-1.38,4.51,4.51,0,0,0,1.56-5.49,3.53,3.53,0,0,0-1.1-1.33,8.57,8.57,0,0,0-1.44-.88,14.88,14.88,0,0,0-1.73-.65l-4.17-1.22a15.87,15.87,0,0,1-1.82-.64,11,11,0,0,1-1.68-.89,6.12,6.12,0,0,1-1.44-1.25,5.63,5.63,0,0,1-.95-1.7,6.78,6.78,0,0,1,2-7.39,10.27,10.27,0,0,1,6.62-1.92,12.13,12.13,0,0,1,6.87,1.79v2.3a12.55,12.55,0,0,0-6.75-1.78,8.3,8.3,0,0,0-4.88,1.26,4,4,0,0,0-1.78,3.41,4.17,4.17,0,0,0,.35,1.75,3.28,3.28,0,0,0,1,1.27,7,7,0,0,0,1.38.81,12.4,12.4,0,0,0,1.66.6l4.22,1.22a18.25,18.25,0,0,1,1.86.63,10.86,10.86,0,0,1,1.71.89,6.27,6.27,0,0,1,1.49,1.27,5.78,5.78,0,0,1,1,1.76,6.85,6.85,0,0,1,.39,2.37,6.72,6.72,0,0,1-2.48,5.46A10.6,10.6,0,0,1,294.21,60.84Z"/><path class="cls-5" d="M320.11,60.84A10.28,10.28,0,0,1,313,58.46a8.15,8.15,0,0,1-2.65-6.38V42.57A8.15,8.15,0,0,1,313,36.19a10.29,10.29,0,0,1,7.14-2.39,16.46,16.46,0,0,1,6.45,1.34v2.3a14.49,14.49,0,0,0-6.11-1.33,8.18,8.18,0,0,0-5.63,1.81,6.23,6.23,0,0,0-2.05,4.92v8.95a6.26,6.26,0,0,0,2.05,4.93,8.13,8.13,0,0,0,5.63,1.82,14.49,14.49,0,0,0,6.11-1.33v2.3A16.45,16.45,0,0,1,320.11,60.84Z"/><path class="cls-6" d="M334.63,60.37V34.28h2.45V60.37Z"/><path class="cls-7" d="M170.94,47.32a25,25,0,0,1,5.42-15.6.28.28,0,0,0,0,.09,22.51,22.51,0,0,0-4.1,13c0,11.54,6.95,17.83,16.87,23,.82.44,1.64.87,2.48,1.26a43.11,43.11,0,0,0,8.71,3c-.51.09-1,.15-1.55.21A25.2,25.2,0,0,1,170.94,47.32Z"/><path class="cls-8" d="M172.27,44.8a22.51,22.51,0,0,1,4.1-13,23.36,23.36,0,0,0,1.4,7.22A20.11,20.11,0,0,0,176,47.32c0,6.08,2.89,12.19,7.72,16.82a34,34,0,0,0,5.43,3.71C179.22,62.63,172.27,56.34,172.27,44.8Z"/><path class="cls-9" d="M221.26,47.31a25.07,25.07,0,0,1-5.41,15.6.19.19,0,0,0,0-.08,22.55,22.55,0,0,0,4.09-13c0-11.55-6.94-17.83-16.86-23.06-.82-.44-1.65-.87-2.48-1.26a43.14,43.14,0,0,0-8.72-3c.51-.09,1-.16,1.55-.22A25.2,25.2,0,0,1,221.26,47.31Z"/><path class="cls-10" d="M219.93,49.84a22.55,22.55,0,0,1-4.09,13,23.4,23.4,0,0,0-1.41-7.23,19.92,19.92,0,0,0,1.79-8.29,23.79,23.79,0,0,0-7.73-16.81,33.7,33.7,0,0,0-5.42-3.72C213,32,219.93,38.29,219.93,49.84Z"/><path class="cls-11" d="M214.91,40.16a20.29,20.29,0,0,0-8.07-9.85c-6.65-4.36-16.43-3.83-21.25.19-3.4,2.94-2.84,8.12.6,13.82,5.58,9.57,21.16,11.2,19.41,5.34q.21.31.42.66a18.06,18.06,0,0,1,1,1.8A20.31,20.31,0,0,1,208.5,56a10.56,10.56,0,0,1,.08,5.2,4.67,4.67,0,0,1-.52,1.18c-.11-2-2.31-4.3-9.23-5.88C187.93,54,181.61,47.63,178.58,41c-2.35-5-3.59-13.19.09-17.43,4.51-4.31,17.86-.49,24,3a32.65,32.65,0,0,1,5.84,3.94,23.65,23.65,0,0,1,4.66,5.9A24.81,24.81,0,0,1,214.91,40.16Z"/><path class="cls-12" d="M215.85,62.91c.08,3.53-.77,6.51-2.31,8.14-4.63,4.32-17.72.53-23.92-2.94a33.63,33.63,0,0,1-5.9-4,23.42,23.42,0,0,1-4.57-5.75,23.91,23.91,0,0,1-1.8-3.8c.12.33.26.64.39,1a20.38,20.38,0,0,0,8.14,9.09,20.17,20.17,0,0,0,14,2.42c2.93-.55,6.77-2.07,8.17-4.66,1.64-2.68.79-8-2.46-12.74-6.39-9.42-20.64-10.16-19-4.67-.15-.21-.29-.44-.43-.67a16.89,16.89,0,0,1-2.88-8.48,7.38,7.38,0,0,1,.84-3.59c.12,2.06,2.33,4.3,9.23,5.87,12,2.72,18.43,10.2,21.05,17.48A23.6,23.6,0,0,1,215.85,62.91Z"/></g></svg>