<svg xmlns="http://www.w3.org/2000/svg" xmlns:xlink="http://www.w3.org/1999/xlink" viewBox="0 0 994.25 569.24"><defs><style>.cls-1{fill:none;}.cls-2{fill:url(#linear-gradient);}.cls-3{clip-path:url(#clip-path);}.cls-4{fill:url(#linear-gradient-2);}.cls-5{fill:url(#linear-gradient-3);}.cls-6{fill:url(#linear-gradient-4);}.cls-7{fill:url(#linear-gradient-5);}.cls-8{fill:url(#linear-gradient-6);}.cls-9{fill:url(#linear-gradient-7);}.cls-10{clip-path:url(#clip-path-2);}.cls-11{opacity:0.6;}.cls-12{fill:url(#linear-gradient-8);}.cls-13{fill:url(#linear-gradient-9);}.cls-14{fill:url(#linear-gradient-10);}.cls-15{fill:url(#linear-gradient-11);}.cls-16{fill:url(#linear-gradient-12);}.cls-17{fill:url(#linear-gradient-13);}.cls-18{fill:url(#linear-gradient-14);}.cls-19{fill:url(#linear-gradient-15);}.cls-20{fill:url(#linear-gradient-16);}.cls-21{fill:url(#linear-gradient-17);}.cls-22{fill:url(#linear-gradient-18);}.cls-23{fill:url(#linear-gradient-19);}.cls-24{fill:#f9f9f9;}</style><linearGradient id="linear-gradient" x1="195.47" y1="301.01" x2="1414.63" y2="301.01" gradientUnits="userSpaceOnUse"><stop offset="0" stop-color="#231f20"/><stop offset="0.07" stop-color="#222831"/><stop offset="0.29" stop-color="#204362"/><stop offset="0.51" stop-color="#1e5989"/><stop offset="0.7" stop-color="#1d68a5"/><stop offset="0.87" stop-color="#1c72b6"/><stop offset="1" stop-color="#1c75bc"/></linearGradient><clipPath id="clip-path" transform="translate(124.12 150)"><rect class="cls-1" y="1.01" width="780" height="302.01"/></clipPath><linearGradient id="linear-gradient-2" x1="-58.05" y1="275.33" x2="-147.12" y2="50.47" gradientTransform="translate(732.38 175.89)" gradientUnits="userSpaceOnUse"><stop offset="0.04" stop-color="#edb5c6"/><stop offset="0.16" stop-color="#eec1cf"/><stop offset="0.37" stop-color="#f0e2e7"/><stop offset="0.46" stop-color="#f1f2f2"/><stop offset="0.54" stop-color="#eceff0"/><stop offset="0.64" stop-color="#dce5ec"/><stop offset="0.75" stop-color="#c3d4e4"/><stop offset="0.86" stop-color="#a0bdda"/><stop offset="0.99" stop-color="#73a0cd"/><stop offset="1" stop-color="#6d9ccb"/></linearGradient><linearGradient id="linear-gradient-3" x1="-132.1" y1="232.57" x2="-132.1" y2="-53.24" gradientTransform="translate(732.38 175.89)" gradientUnits="userSpaceOnUse"><stop offset="0" stop-color="#fec6c6"/><stop offset="0.46" stop-color="#f1f2f2"/><stop offset="0.51" stop-color="#e5eaef"/><stop offset="0.6" stop-color="#c6d3e7"/><stop offset="0.73" stop-color="#94afda"/><stop offset="0.87" stop-color="#4f7ec9"/><stop offset="0.97" stop-color="#1c5abc"/></linearGradient><linearGradient id="linear-gradient-4" x1="31.75" y1="-104.67" x2="52.23" y2="121.98" gradientTransform="translate(732.38 175.89)" gradientUnits="userSpaceOnUse"><stop offset="0.06" stop-color="#6d9ccb"/><stop offset="0.1" stop-color="#7ea7d0"/><stop offset="0.26" stop-color="#bccfe2"/><stop offset="0.37" stop-color="#e2e8ee"/><stop offset="0.43" stop-color="#f1f2f2"/><stop offset="0.63" stop-color="#f4e7e7"/><stop offset="0.98" stop-color="#fdc8c8"/><stop offset="1" stop-color="#fec6c6"/></linearGradient><linearGradient id="linear-gradient-5" x1="77.06" y1="-83.65" x2="63.79" y2="221.14" gradientTransform="translate(732.38 175.89)" gradientUnits="userSpaceOnUse"><stop offset="0" stop-color="#6d9ccb"/><stop offset="0.2" stop-color="#a6c1dc"/><stop offset="0.41" stop-color="#dce4ec"/><stop offset="0.51" stop-color="#f1f2f2"/><stop offset="0.6" stop-color="#e6d5e1"/><stop offset="0.69" stop-color="#debed3"/><stop offset="0.74" stop-color="#dbb6ce"/></linearGradient><linearGradient id="linear-gradient-6" x1="-32.8" y1="-104.34" x2="-32.8" y2="296.57" gradientTransform="translate(732.38 175.89)" gradientUnits="userSpaceOnUse"><stop offset="0" stop-color="#f1f2f2"/><stop offset="0.01" stop-color="#dce4ec"/><stop offset="0.02" stop-color="#b4cae0"/><stop offset="0.04" stop-color="#95b6d7"/><stop offset="0.05" stop-color="#7fa8d0"/><stop offset="0.07" stop-color="#729fcc"/><stop offset="0.08" stop-color="#6d9ccb"/><stop offset="0.26" stop-color="#cad8e6"/><stop offset="0.35" stop-color="#f1f2f2"/><stop offset="0.45" stop-color="#e5d8e5"/><stop offset="0.66" stop-color="#c594c4"/><stop offset="0.97" stop-color="#932a90"/><stop offset="0.97" stop-color="#92278f"/></linearGradient><linearGradient id="linear-gradient-7" x1="-26.35" y1="322.03" x2="-26.35" y2="-108.65" gradientTransform="translate(732.38 175.89)" gradientUnits="userSpaceOnUse"><stop offset="0.18" stop-color="#f1f2f2"/><stop offset="0.25" stop-color="#fecbc6"/><stop offset="0.33" stop-color="#fbd5d1"/><stop offset="0.46" stop-color="#f2f0ef"/><stop offset="0.47" stop-color="#f1f2f2"/><stop offset="0.52" stop-color="#e5eaef"/><stop offset="0.6" stop-color="#c6d3e7"/><stop offset="0.7" stop-color="#94afda"/><stop offset="0.82" stop-color="#4f7ec9"/><stop offset="0.91" stop-color="#1c5abc"/></linearGradient><clipPath id="clip-path-2" transform="translate(124.12 150)"><rect class="cls-1" y="1.01" width="724.82" height="302.01"/></clipPath><linearGradient id="linear-gradient-8" x1="83.96" y1="287.81" x2="-165.44" y2="-95.46" gradientUnits="userSpaceOnUse"><stop offset="0" stop-color="#f1f2f2"/><stop offset="0.06" stop-color="#f6e4e2"/><stop offset="0.16" stop-color="#fcd2cd"/><stop offset="0.22" stop-color="#fecbc6"/><stop offset="0.49" stop-color="#f1f2f2"/><stop offset="0.56" stop-color="#dee6ec"/><stop offset="0.69" stop-color="#acc5de"/><stop offset="0.84" stop-color="#6d9ccb"/></linearGradient><linearGradient id="linear-gradient-9" x1="92" y1="282.58" x2="-157.4" y2="-100.69" xlink:href="#linear-gradient-8"/><linearGradient id="linear-gradient-10" x1="275.46" y1="163.19" x2="26.06" y2="-220.08" xlink:href="#linear-gradient-8"/><linearGradient id="linear-gradient-11" x1="267.42" y1="168.42" x2="18.02" y2="-214.84" xlink:href="#linear-gradient-8"/><linearGradient id="linear-gradient-12" x1="204.86" y1="209.13" x2="-44.54" y2="-174.14" xlink:href="#linear-gradient-8"/><linearGradient id="linear-gradient-13" x1="154.61" y1="241.84" x2="-94.8" y2="-141.43" xlink:href="#linear-gradient-8"/><linearGradient id="linear-gradient-14" x1="344.05" y1="173.53" x2="334.15" y2="148.53" gradientTransform="matrix(1, 0, 0, 1, 0, 0)" xlink:href="#linear-gradient-2"/><linearGradient id="linear-gradient-15" x1="335.82" y1="168.77" x2="335.82" y2="137" gradientTransform="matrix(1, 0, 0, 1, 0, 0)" xlink:href="#linear-gradient-3"/><linearGradient id="linear-gradient-16" x1="354.03" y1="131.29" x2="356.31" y2="156.48" gradientTransform="matrix(1, 0, 0, 1, 0, 0)" xlink:href="#linear-gradient-4"/><linearGradient id="linear-gradient-17" x1="359.07" y1="133.62" x2="357.59" y2="167.5" gradientTransform="matrix(1, 0, 0, 1, 0, 0)" xlink:href="#linear-gradient-5"/><linearGradient id="linear-gradient-18" x1="346.86" y1="131.32" x2="346.86" y2="175.89" gradientTransform="matrix(1, 0, 0, 1, 0, 0)" xlink:href="#linear-gradient-6"/><linearGradient id="linear-gradient-19" x1="347.57" y1="178.72" x2="347.57" y2="130.84" gradientTransform="matrix(1, 0, 0, 1, 0, 0)" xlink:href="#linear-gradient-7"/></defs><g id="Layer_2" data-name="Layer 2"><g id="_780X300" data-name="780X300"><rect class="cls-2" x="124.12" y="150" width="780" height="302.01"/><g class="cls-3"><path class="cls-4" d="M535.32,248.61a166.6,166.6,0,0,1,36-103.77,2.55,2.55,0,0,0,0,.55,150.06,150.06,0,0,0-27.23,86.44c0,76.81,46.21,118.64,112.21,153.4,1,.5,1.87,1,2.78,1.46,4.38,2.41,8.9,4.65,13.42,6.75a.79.79,0,0,0,.31.18,286.93,286.93,0,0,0,58,20c-3.38.59-6.84,1-10.31,1.41a163.93,163.93,0,0,1-17.83,1A167.39,167.39,0,0,1,535.32,248.61Z" transform="translate(124.12 150)"/><path class="cls-5" d="M544.17,231.83a150.06,150.06,0,0,1,27.23-86.44,156.16,156.16,0,0,0,9.36,48.08,134.3,134.3,0,0,0-3.15,102.76c6,16.61,23.53,47.94,42.69,64.27a223.91,223.91,0,0,0,36.08,24.73C590.38,350.47,544.17,308.64,544.17,231.83Z" transform="translate(124.12 150)"/><path class="cls-6" d="M870.13,248.57a166.6,166.6,0,0,1-36,103.77,2.55,2.55,0,0,0,0-.55,150.06,150.06,0,0,0,27.23-86.44c0-76.81-46.21-118.64-112.21-153.4-1-.5-1.87-1-2.78-1.46-4.38-2.41-8.9-4.65-13.41-6.75a.83.83,0,0,0-.32-.18,286.72,286.72,0,0,0-58-20c3.38-.59,6.84-1,10.31-1.41a164.12,164.12,0,0,1,17.84-1A167.38,167.38,0,0,1,870.13,248.57Z" transform="translate(124.12 150)"/><path class="cls-7" d="M861.28,265.35a150.06,150.06,0,0,1-27.23,86.44,156.43,156.43,0,0,0-9.35-48.08A134.24,134.24,0,0,0,827.84,201c-6-16.61-23.53-47.94-42.69-64.27A223.91,223.91,0,0,0,749.07,112C815.07,146.71,861.28,188.54,861.28,265.35Z" transform="translate(124.12 150)"/><path class="cls-8" d="M827.84,201c-1.09-2.92-2.32-5.75-3.64-8.58A132.21,132.21,0,0,0,798.29,155c-1.42-1.51-2.88-2.92-4.34-4.29a39,39,0,0,0-3.69-3.28,46.94,46.94,0,0,0-3.74-3.15c-2.51-2.05-5.11-4-7.76-5.79-1.5-1.05-3-2.06-4.56-3-2.82-1.78-5.7-3.43-8.57-5-1.46-.73-2.92-1.5-4.38-2.19-45.48-21.85-98.76-15.32-128.45,8.44a36.54,36.54,0,0,0-9.62,11.63c-9.77,18.11-7.12,46.58,13.59,80.33.91,1.5,1.87,3,2.87,4.42,42.42,62.54,137.12,67.47,126.26,31.07,1,1.41,1.92,2.87,2.83,4.38,20.71,33.8,23.4,62.35,13.55,80.41-.73-13.68-15.38-28.64-61.4-39.13-72.53-16.52-114.58-59.16-134.74-103.18-2-4.38-3.79-8.81-5.38-13.18a155.42,155.42,0,0,1-9.4-48.58,110.48,110.48,0,0,1,3.19-30.29c2.65-9.94,6.75-18.2,12.18-23.95,13.68-14.59,48.67-16.05,87.85-7.07a286.72,286.72,0,0,1,58,20,.83.83,0,0,1,.32.18c4.56,2.19,9,4.47,13.41,6.75.91.46,1.82,1,2.78,1.46a223.91,223.91,0,0,1,36.08,24.73C804.31,153,821.87,184.34,827.84,201Z" transform="translate(124.12 150)"/><path class="cls-9" d="M834.09,352.34c.6,23.49-5.11,43.29-15.32,54.19-13.41,14.32-47.26,16.05-85.48,7.66h-.09a24.31,24.31,0,0,1-2.47-.55A287.19,287.19,0,0,1,659.62,387a222.86,222.86,0,0,1-39.27-26.46c-18.89-16.05-36.22-46.71-42.42-63.49.82,2.14,1.73,4.24,2.64,6.34a2.94,2.94,0,0,0,.32.64,130.56,130.56,0,0,0,20.16,31.52q1.71,2,3.42,3.83a121.48,121.48,0,0,0,8.67,8.62c1.46,1.37,3,2.65,4.47,3.88q2.46,2.12,5.06,4c1.33,1.05,2.7,2,4.06,2.92,1.55,1.1,3.11,2.15,4.7,3.11,1.1.68,2.19,1.36,3.29,2,2.73,1.6,5.47,3.1,8.25,4.47,1.37.73,2.74,1.42,4.15,2,1.1.5,2.19,1,3.33,1.41s2.33,1,3.47,1.37c.82.32,1.64.64,2.42.91s1.55.55,2.28.83,1.55.5,2.28.77c1.32.46,2.64.87,4,1.23l.46.14.5.14a1,1,0,0,0,.32.09,104,104,0,0,0,14.64,3.37c1.42.23,2.83.46,4.24.64s2.88.37,4.34.5,2.92.28,4.38.37,3,.18,4.47.23,3,.09,4.47.09a128.09,128.09,0,0,0,14.5-.82c1.51-.14,3-.32,4.52-.55,2-.32,4.1-.68,6.16-1,1.27-.23,2.55-.5,3.78-.78a11.43,11.43,0,0,0,1.78-.41c1.28-.27,2.51-.59,3.74-.91,13.64-3.69,25.82-9.62,35.49-17.38A37.22,37.22,0,0,0,782.28,349c9.85-18.06,7.16-46.61-13.55-80.41-.91-1.51-1.87-3-2.83-4.38-42.47-62.68-137.3-67.56-126.26-31.07-1-1.41-2-2.92-2.87-4.42-20.71-33.75-23.36-62.22-13.59-80.33C624,162,638.73,177,684.62,187.4c79.73,18.11,122.65,67.87,140.08,116.31a156.43,156.43,0,0,1,9.35,48.08A2.55,2.55,0,0,1,834.09,352.34Z" transform="translate(124.12 150)"/></g><rect class="cls-1" x="124.12" y="151.01" width="724.82" height="302.01"/><g class="cls-10"><g class="cls-11"><path class="cls-12" d="M52.45,206.48c-97.36,0-176.57-79.19-176.57-176.53a174.61,174.61,0,0,1,38-109.45,3.41,3.41,0,0,1,3.79-1.11A3.42,3.42,0,0,1-80-77.4a3.35,3.35,0,0,1-.57,2.53,151.56,151.56,0,0,0-27.55,87.46C-108.16,96.52-53.24,137,6.1,168.26l1,.54c.6.33,1.19.64,1.78.93,4.21,2.32,8.67,4.57,13.79,7a4.1,4.1,0,0,1,.41.22,293.78,293.78,0,0,0,59.2,20.4,3.4,3.4,0,0,1-.16,6.67c-3.33.59-6.89,1.08-10.9,1.5A173.38,173.38,0,0,1,52.45,206.48ZM-114.27-2.42a172,172,0,0,0-3,32.37c0,93.58,76.15,169.72,169.76,169.72,3.58,0,7.15-.12,10.68-.34a302,302,0,0,1-42.86-16.24,3.64,3.64,0,0,1-.76-.39c-5.12-2.38-9.63-4.66-13.76-6.94-.52-.26-1.17-.6-1.82-.95l-1-.52C-55.37,143.58-115,100.37-115,12.59Q-115,5-114.27-2.42ZM23.66,177.35h0Zm-1-.63ZM-80.09-77.67h0Z" transform="translate(124.12 150)"/><path class="cls-13" d="M4.51,174.67a3.37,3.37,0,0,1-1.59-.39C-55.37,143.58-115,100.37-115,12.59A158.31,158.31,0,0,1-86.18-78.78a3.4,3.4,0,0,1,3.77-1.3A3.39,3.39,0,0,1-80-76.92a158.94,158.94,0,0,0,9.48,48.68,3.44,3.44,0,0,1-.11,2.56A133.66,133.66,0,0,0-82.58,30,134.77,134.77,0,0,0-73.79,78C-67.86,94.49-50,126.53-30.6,143.1A227.41,227.41,0,0,0,6.17,168.3a3.4,3.4,0,0,1-1.66,6.37ZM-86.14-66.4a151.46,151.46,0,0,0-22,79c0,56,24.43,92.64,58.32,120.12C-63.95,115.18-75.56,93.2-80.18,80.37A141.75,141.75,0,0,1-89.39,30a140.45,140.45,0,0,1,12-57.19A169.63,169.63,0,0,1-86.14-66.4Z" transform="translate(124.12 150)"/><path class="cls-14" d="M188.34,140.66a3.66,3.66,0,0,1-1.12-.19,3.41,3.41,0,0,1-2.28-3.22h0a3.37,3.37,0,0,1,.57-2.52,151.56,151.56,0,0,0,27.55-87.46c0-83.93-54.92-124.42-114.26-155.67l-1-.55c-.6-.32-1.18-.63-1.77-.92-4.19-2.31-8.66-4.56-13.78-6.94a3.62,3.62,0,0,1-.43-.24,294.49,294.49,0,0,0-59.19-20.39,3.42,3.42,0,0,1-2.66-3.4,3.41,3.41,0,0,1,2.82-3.27c3.3-.58,6.86-1.07,10.9-1.49a171,171,0,0,1,18.8-1C149.81-146.62,229-67.43,229,29.91a174.57,174.57,0,0,1-38,109.46A3.41,3.41,0,0,1,188.34,140.66ZM185,137.49h0ZM85.39-122.84c5.14,2.4,9.65,4.67,13.77,6.94.51.25,1.15.59,1.8.94l1,.54c58.3,30.7,117.9,73.92,117.9,161.69,0,5-.24,10.06-.7,15a172.12,172.12,0,0,0,3-32.39c0-93.58-76.15-169.72-169.76-169.72-3.58,0-7.15.12-10.68.34a303,303,0,0,1,42.85,16.23A4.43,4.43,0,0,1,85.39-122.84Zm-3.19,6Zm-1-.65h0Z" transform="translate(124.12 150)"/><path class="cls-15" d="M188.29,140.09a3.42,3.42,0,0,1-3.4-3.31,159.17,159.17,0,0,0-9.47-48.68,3.39,3.39,0,0,1,.1-2.56,133.66,133.66,0,0,0,12-55.63,134.81,134.81,0,0,0-8.79-48.06C172.76-34.63,155-66.67,135.51-83.24a228.16,228.16,0,0,0-36.78-25.2A3.39,3.39,0,0,1,97.4-113a3.41,3.41,0,0,1,4.58-1.39C160.27-83.72,219.87-40.5,219.87,47.27a158.31,158.31,0,0,1-28.79,91.37A3.42,3.42,0,0,1,188.29,140.09Zm-6-53A169.51,169.51,0,0,1,191,126.26a151.48,151.48,0,0,0,22-79c0-56-24.43-92.63-58.31-120.11,14.11,17.53,25.71,39.51,30.33,52.33a141.57,141.57,0,0,1,9.21,50.42A140.48,140.48,0,0,1,182.28,87.1Z" transform="translate(124.12 150)"/><path class="cls-16" d="M134.74,137.16a3.19,3.19,0,0,1-.75-.08,3.41,3.41,0,0,1-2.65-3.14c-.58-10.84-11.61-26.12-60.87-37.34C-18.85,76.26-56.66,19.8-71.25-12c-2-4.31-3.88-9-5.67-13.88a165.3,165.3,0,0,1-9.92-51.34,118.06,118.06,0,0,1,3.41-32.27c3-11.13,7.47-20,13.42-26.25,14.43-15.4,49.62-18.49,94.11-8.3a301.63,301.63,0,0,1,60.52,20.84,4.19,4.19,0,0,1,.8.42c4,1.94,8.38,4.13,13.67,6.88.58.29,1.22.63,1.87,1l1,.54a234.93,234.93,0,0,1,37.95,26c20.39,17.38,39,50.8,45.16,67.92a3.41,3.41,0,0,1-2,4.35,3.4,3.4,0,0,1-4.36-2c-1-2.65-2.2-5.47-3.67-8.62a132.58,132.58,0,0,0-26.14-37.74c-1.28-1.36-2.61-2.68-4.39-4.35a40,40,0,0,0-3.6-3.2l-.21-.18a44.27,44.27,0,0,0-3.59-3c-2.75-2.24-5.36-4.19-7.88-5.89-1.7-1.18-3.19-2.17-4.61-3-2.66-1.67-5.5-3.32-8.7-5.05L114.46-90c-1-.49-1.94-1-2.92-1.44-48.79-23.45-102-13.57-129.3,8.3a34.54,34.54,0,0,0-9.07,11c-10.39,19.28-5.3,48.33,13.95,79.72,1.06,1.73,2,3.16,2.85,4.38C23.33,61.12,85.66,73,107.16,62.78c7-3.33,9.51-8.63,7.38-15.76a3.41,3.41,0,0,1,6.08-2.89c1,1.51,2,3.07,3,4.68,20.61,33.64,25.75,65.2,14.09,86.58A3.42,3.42,0,0,1,134.74,137.16ZM-23.06-143.19c-19.6,0-34.51,4.09-42,12.07-5.1,5.4-9.17,13.46-11.8,23.32A111.72,111.72,0,0,0-80-77.43a158.61,158.61,0,0,0,9.52,49.19C-68.79-23.52-67-19-65.06-14.87-51,15.83-14.49,70.27,72,90c34.8,7.93,56,19.1,63.32,33.28,4.79-17.46-.19-40.53-14.27-65.43-1.69,4.65-5.4,8.48-11,11.12-5.91,2.81-13.59,4.23-22.33,4.23-31.6,0-77.07-18.57-103.36-57.34Q-17,13.88-18.69,11.1c-20.55-33.5-25.71-65-14.14-86.47A41.15,41.15,0,0,1-22-88.46c33.79-27,91.18-30.88,136.46-9.13,1,.48,2.05,1,3.09,1.54l1.49.75c1.25.68,2.45,1.34,3.59,2a249.4,249.4,0,0,0-23.9-15.12l-1-.51c-.6-.32-1.18-.63-1.77-.92-5.4-2.82-9.78-5-13.82-7l-.39-.22a294.49,294.49,0,0,0-59.19-20.39C5.79-141.29-9.72-143.19-23.06-143.19ZM82.2-116.87Zm-1-.65h0Z" transform="translate(124.12 150)"/><path class="cls-17" d="M127.72,209.88a209.13,209.13,0,0,1-44.13-5.27l-.18,0c-1-.16-1.94-.38-2.9-.64A298.86,298.86,0,0,1,6.25,176.06,233.71,233.71,0,0,1-35,148.29C-55.16,131.12-73.36,98.72-79.84,81.2a3.4,3.4,0,0,1,2-4.37,3.41,3.41,0,0,1,4.38,2c.81,2.13,1.75,4.28,2.65,6.37l0,0h0c0,.1.09.2.13.31l0,0s-.06-.12-.17-.28a4.09,4.09,0,0,1,.37.64,131.32,131.32,0,0,0,20.33,31.78c1.16,1.34,2.31,2.64,3.46,3.88a119.09,119.09,0,0,0,8.74,8.69c1.31,1.23,2.69,2.42,4.51,3.92s3.36,2.76,5,4c1.26,1,2.52,1.9,4.12,3,1.93,1.36,3.36,2.31,4.72,3.12,1.16.73,2.26,1.42,3.37,2.06,3,1.77,5.76,3.25,8.32,4.51,1.65.88,2.93,1.5,4.11,2s2.26,1,3.28,1.4l.22.09c1.11.49,2.26.93,3.37,1.33.89.34,1.7.66,2.47.93s1.66.59,2.43.88l.86.28c.51.17,1,.34,1.5.52,1.29.44,2.57.83,3.83,1.17l.25.07.41.13.11,0,.4.12.28.07a105,105,0,0,0,14.67,3.38c1.44.24,2.87.47,4.3.65s3,.38,4.36.51c1.51.19,2.92.27,4.33.36,1.64.15,3.12.19,4.61.24a131.42,131.42,0,0,0,19.14-.74c1.57-.14,3.06-.32,4.55-.55,2.08-.32,4.18-.69,6.28-1.07,1.27-.22,2.55-.5,3.77-.77l.23-.05a8.22,8.22,0,0,0,1.35-.31l.29-.07c1.27-.27,2.5-.59,3.73-.91,13.63-3.69,25.9-9.69,35.43-17.34a35.22,35.22,0,0,0,9-10.89c10.47-19.2,5.4-48.28-13.92-79.8-.92-1.52-1.88-3-2.84-4.4C81.62-1.29,19.26-13.12-2.23-2.89c-7,3.34-9.48,8.66-7.32,15.82a3.4,3.4,0,0,1-1.76,4,3.41,3.41,0,0,1-4.27-1.09c-1-1.35-2-2.92-3.11-4.78-20.55-33.5-25.71-65-14.14-86.47a3.4,3.4,0,0,1,3.73-1.71A3.41,3.41,0,0,1-26.44-74c.65,10.83,11.74,26.08,60.91,37.27C132.34-14.46,168.8,49.6,181.82,85.8a165.92,165.92,0,0,1,9.87,50.53,6.09,6.09,0,0,1,.05.88c.63,25.09-5.48,46.38-16.77,58.42C166.16,205,149.5,209.88,127.72,209.88Zm-43.36-12a2.47,2.47,0,0,1,.43.06c40.28,8.84,72.93,6.19,85.21-6.93,10.08-10.76,15.53-30.31,14.94-53.64v-.09h0a3.75,3.75,0,0,1-.05-.47,159.17,159.17,0,0,0-9.47-48.68C162.87,53.21,127.67-8.54,33-30-1.79-38-23-49.1-30.36-63.26c-4.76,17.5.22,40.55,14.27,65.36C-14.42-2.55-10.71-6.39-5.16-9,22.16-22,87-5.46,120.62,44.13c1,1.51,2,3.07,3,4.68,20.61,33.64,25.75,65.2,14.09,86.58a41.93,41.93,0,0,1-10.77,13C116.7,156.58,103.58,163,89,167c-1.31.34-2.58.67-3.9,1a17.42,17.42,0,0,1-2.06.47c-1.29.28-2.62.57-4,.8-2.15.39-4.29.77-6.44,1.1-1.64.25-3.26.45-4.89.6a139.68,139.68,0,0,1-20,.76c-1.65,0-3.28-.09-4.91-.25s-3.09-.19-4.63-.39c-1.34-.12-3-.27-4.6-.53-1.39-.18-2.89-.42-4.39-.66a112.88,112.88,0,0,1-15.37-3.53,4.91,4.91,0,0,1-.67-.19l-.11,0-.36-.11a3.09,3.09,0,0,1-.38-.11c-1.38-.37-2.79-.8-4.29-1.31-.49-.19-.9-.32-1.32-.46s-.71-.23-1.06-.36l-2.37-.85c-.83-.29-1.72-.63-2.6-1-1.14-.41-2.4-.89-3.62-1.42s-2.41-1-3.53-1.51c-1.35-.56-2.8-1.26-4.54-2.19-2.06-1-4.28-2.19-6.68-3.55A240.28,240.28,0,0,0,9.47,170.06a292.39,292.39,0,0,0,72.71,27.29C83,197.57,83.69,197.73,84.36,197.85ZM15.62,159.73l.22.09Zm-.95-.17ZM185,137.5Zm6.75-.25h0Zm-6.8,0h3.4l-3.4-.1Z" transform="translate(124.12 150)"/></g></g><path class="cls-18" d="M328.6,151a18.52,18.52,0,0,1,4-11.54.13.13,0,0,0,0,.06,16.65,16.65,0,0,0-3,9.61c0,8.54,5.14,13.19,12.47,17.05l.31.16c.49.27,1,.52,1.49.75l0,0a31.15,31.15,0,0,0,6.44,2.22c-.37.07-.76.12-1.14.16A18.57,18.57,0,0,1,328.6,151Z" transform="translate(124.12 150)"/><path class="cls-19" d="M329.58,149.14a16.65,16.65,0,0,1,3-9.61,17.14,17.14,0,0,0,1,5.35,14.9,14.9,0,0,0-.35,11.42,19.86,19.86,0,0,0,4.74,7.14,25.35,25.35,0,0,0,4,2.75C334.72,162.33,329.58,157.68,329.58,149.14Z" transform="translate(124.12 150)"/><path class="cls-20" d="M365.81,151a18.52,18.52,0,0,1-4,11.54.15.15,0,0,0,0-.07,16.62,16.62,0,0,0,3-9.6c0-8.54-5.14-13.19-12.47-17.06l-.31-.16c-.49-.27-1-.52-1.49-.75l0,0a32.16,32.16,0,0,0-6.44-2.22c.37-.07.76-.12,1.14-.16A18.66,18.66,0,0,1,365.81,151Z" transform="translate(124.12 150)"/><path class="cls-21" d="M364.83,152.87a16.62,16.62,0,0,1-3,9.6,17,17,0,0,0-1-5.34,14.9,14.9,0,0,0,.35-11.42,19.9,19.9,0,0,0-4.74-7.15,25.56,25.56,0,0,0-4-2.75C359.69,139.68,364.83,144.33,364.83,152.87Z" transform="translate(124.12 150)"/><path class="cls-22" d="M361.11,145.71c-.12-.33-.25-.64-.4-1a14.69,14.69,0,0,0-2.88-4.15q-.24-.25-.48-.48l-.41-.37-.42-.35c-.28-.22-.57-.44-.86-.64s-.34-.23-.51-.33-.63-.38-.95-.56l-.49-.24c-5-2.43-11-1.7-14.28.94a4.06,4.06,0,0,0-1.07,1.29c-1.08,2-.79,5.18,1.51,8.93l.32.49c4.72,6.95,15.25,7.5,14,3.45.1.16.21.32.31.49,2.3,3.76,2.6,6.93,1.51,8.94-.08-1.52-1.71-3.18-6.83-4.35-8.06-1.84-12.73-6.58-15-11.47-.23-.49-.42-1-.6-1.46a17.23,17.23,0,0,1-1-5.4,12.19,12.19,0,0,1,.36-3.37,6.13,6.13,0,0,1,1.35-2.66c1.52-1.63,5.41-1.79,9.77-.79a32.16,32.16,0,0,1,6.44,2.22l0,0,1.49.75.31.16a25.56,25.56,0,0,1,4,2.75A19.9,19.9,0,0,1,361.11,145.71Z" transform="translate(124.12 150)"/><path class="cls-23" d="M361.81,162.54c.06,2.61-.57,4.81-1.71,6-1.49,1.59-5.25,1.78-9.5.85h0a2.61,2.61,0,0,1-.27-.06,31.66,31.66,0,0,1-7.91-3,24.3,24.3,0,0,1-4.36-2.94,19.82,19.82,0,0,1-4.72-7.06c.09.24.2.48.3.71l0,.07a14.7,14.7,0,0,0,2.24,3.5l.38.43a12.54,12.54,0,0,0,1,1l.49.43c.19.16.37.3.57.44a4.6,4.6,0,0,0,.45.32,5.91,5.91,0,0,0,.52.35l.37.22c.3.18.6.35.91.5a5,5,0,0,0,.47.22l.37.16a2.5,2.5,0,0,0,.38.15l.27.1.25.09.26.09.44.14h.05l.06,0h0a11.31,11.31,0,0,0,1.63.37l.47.07a3.86,3.86,0,0,0,.49.06l.48,0c.16,0,.33,0,.5,0h.5a14.35,14.35,0,0,0,1.61-.09l.5-.07.68-.11.43-.09.19,0,.42-.11a10.76,10.76,0,0,0,3.94-1.93,4.14,4.14,0,0,0,1.07-1.28c1.09-2,.79-5.18-1.51-8.94-.1-.17-.21-.33-.31-.49-4.72-7-15.26-7.51-14-3.45l-.32-.49c-2.3-3.75-2.59-6.92-1.51-8.93.09,1.52,1.73,3.18,6.83,4.34,8.87,2,13.64,7.55,15.57,12.93a17,17,0,0,1,1,5.34A.15.15,0,0,1,361.81,162.54Z" transform="translate(124.12 150)"/><path class="cls-24" d="M382.54,161a7.41,7.41,0,0,1-5.21-1.81,6.24,6.24,0,0,1-2-4.81v-6.75a6.24,6.24,0,0,1,2-4.81,8.36,8.36,0,0,1,10.39,0,6.28,6.28,0,0,1,2,4.81v6.75a6.28,6.28,0,0,1-2,4.81A7.38,7.38,0,0,1,382.54,161Zm0-1.7a5.42,5.42,0,0,0,3.86-1.37,4.67,4.67,0,0,0,1.46-3.62v-6.62a4.67,4.67,0,0,0-1.46-3.62,5.42,5.42,0,0,0-3.86-1.36,5.47,5.47,0,0,0-3.89,1.36,4.68,4.68,0,0,0-1.47,3.62v6.62a4.68,4.68,0,0,0,1.47,3.62A5.48,5.48,0,0,0,382.54,159.3Z" transform="translate(124.12 150)"/><path class="cls-24" d="M403.09,141.36a5.88,5.88,0,0,1,4.39,1.69,6.1,6.1,0,0,1,1.65,4.47,6.18,6.18,0,0,1-1.65,4.5,5.87,5.87,0,0,1-4.39,1.68h-5.21v7h-1.82V141.36ZM403,152a4.22,4.22,0,0,0,3.17-1.23,5,5,0,0,0,0-6.51,4.25,4.25,0,0,0-3.17-1.22h-5.08v9Z" transform="translate(124.12 150)"/><path class="cls-24" d="M419.71,161a11.52,11.52,0,0,1-6-1.53v-1.73a11.07,11.07,0,0,0,5.76,1.56,6.52,6.52,0,0,0,3.9-1,3.19,3.19,0,0,0,1.43-2.71,3.14,3.14,0,0,0-.27-1.34,2.77,2.77,0,0,0-.81-1,6,6,0,0,0-1.07-.64,10.5,10.5,0,0,0-1.28-.49l-3.08-.9a13.14,13.14,0,0,1-1.35-.47,7.48,7.48,0,0,1-1.23-.66,4.65,4.65,0,0,1-1.07-.92,4.22,4.22,0,0,1-.7-1.26,5,5,0,0,1,1.47-5.47,7.61,7.61,0,0,1,4.89-1.41,9,9,0,0,1,5.08,1.32V144a9.27,9.27,0,0,0-5-1.32,6.09,6.09,0,0,0-3.61.94,3.15,3.15,0,0,0-1.05,3.81,2.4,2.4,0,0,0,.76.94,5.43,5.43,0,0,0,1,.6,9.9,9.9,0,0,0,1.23.45l3.12.89a14.41,14.41,0,0,1,1.37.47,8.18,8.18,0,0,1,1.27.66,4.87,4.87,0,0,1,1.1.93,4.6,4.6,0,0,1,.73,1.3,5.16,5.16,0,0,1,.28,1.76,4.94,4.94,0,0,1-1.83,4A7.8,7.8,0,0,1,419.71,161Z" transform="translate(124.12 150)"/><path class="cls-24" d="M438.86,161a7.59,7.59,0,0,1-5.28-1.77,6,6,0,0,1-2-4.71v-7a6,6,0,0,1,2-4.71,7.59,7.59,0,0,1,5.28-1.77,12.05,12.05,0,0,1,4.76,1v1.7a10.63,10.63,0,0,0-4.51-1,6.09,6.09,0,0,0-4.17,1.34,4.66,4.66,0,0,0-1.51,3.64v6.62a4.66,4.66,0,0,0,1.51,3.64,6,6,0,0,0,4.17,1.35,10.63,10.63,0,0,0,4.51-1V160A12.05,12.05,0,0,1,438.86,161Z" transform="translate(124.12 150)"/><path class="cls-24" d="M449.59,160.65V141.36h1.81v19.29Z" transform="translate(124.12 150)"/></g></g></svg>